<svg width="19" height="19" viewBox="0 0 19 19" fill="none" xmlns="http://www.w3.org/2000/svg">
<path d="M9.25544 1.94302C4.94783 1.94302 1.45508 5.43578 1.45508 9.74339C1.45508 14.051 4.94783 17.5437 9.25544 17.5437C13.5631 17.5437 17.0558 14.051 17.0558 9.74339C17.0558 5.43578 13.5631 1.94302 9.25544 1.94302ZM9.25544 16.2205C5.67911 16.2205 2.77835 13.3197 2.77835 9.74339C2.77835 6.16706 5.67911 3.2663 9.25544 3.2663C12.8318 3.2663 15.7325 6.16706 15.7325 9.74339C15.7325 13.3197 12.8318 16.2205 9.25544 16.2205Z" fill="#FFC700"/>
<path d="M9.25541 3.2663C5.67908 3.2663 2.77832 6.16706 2.77832 9.74338C2.77832 13.3197 5.67908 16.2205 9.25541 16.2205C12.8317 16.2205 15.7325 13.3197 15.7325 9.74338C15.7325 6.16706 12.8317 3.2663 9.25541 3.2663ZM12.5984 10.1613C12.5984 10.2379 12.5357 10.3006 12.4591 10.3006H9.81258V12.9471C9.81258 13.0237 9.74989 13.0864 9.67328 13.0864H8.83753C8.76092 13.0864 8.69824 13.0237 8.69824 12.9471V10.3006H6.05169C5.97508 10.3006 5.91239 10.2379 5.91239 10.1613V9.32551C5.91239 9.2489 5.97508 9.18621 6.05169 9.18621H8.69824V6.53966C8.69824 6.46305 8.76092 6.40037 8.83753 6.40037H9.67328C9.74989 6.40037 9.81258 6.46305 9.81258 6.53966V9.18621H12.4591C12.5357 9.18621 12.5984 9.2489 12.5984 9.32551V10.1613Z" fill="#FFC700" fill-opacity="0.4"/>
<path d="M12.4593 9.18622H9.81278V6.53967C9.81278 6.46306 9.7501 6.40038 9.67349 6.40038H8.83773C8.76112 6.40038 8.69844 6.46306 8.69844 6.53967V9.18622H6.05189C5.97528 9.18622 5.9126 9.2489 5.9126 9.32551V10.1613C5.9126 10.2379 5.97528 10.3006 6.05189 10.3006H8.69844V12.9471C8.69844 13.0237 8.76112 13.0864 8.83773 13.0864H9.67349C9.7501 13.0864 9.81278 13.0237 9.81278 12.9471V10.3006H12.4593C12.5359 10.3006 12.5986 10.2379 12.5986 10.1613V9.32551C12.5986 9.2489 12.5359 9.18622 12.4593 9.18622Z" fill="#FFC700"/>
</svg>
